<svg width="200" height="198" viewBox="0 0 200 198" fill="none" xmlns="http://www.w3.org/2000/svg">
<ellipse cx="99.9622" cy="99" rx="99.6226" ry="99" fill="#0D0D0D" fill-opacity="0.32"/>
<ellipse cx="100.465" cy="98.5" rx="80" ry="79.5" fill="url(#paint0_linear_6502_147)"/>
<path d="M86.4381 122.768C82.7688 122.768 79.4835 121.872 76.5821 120.08C73.6808 118.245 71.3981 115.6 69.7341 112.144C68.0701 108.688 67.2381 104.507 67.2381 99.6C67.2381 94.6933 68.0701 90.512 69.7341 87.056C71.3981 83.6 73.6808 80.976 76.5821 79.184C79.4835 77.3493 82.7688 76.432 86.4381 76.432C90.1501 76.432 93.4355 77.3493 96.2941 79.184C99.1955 80.976 101.478 83.6 103.142 87.056C104.806 90.512 105.638 94.6933 105.638 99.6C105.638 104.507 104.806 108.688 103.142 112.144C101.478 115.6 99.1955 118.245 96.2941 120.08C93.4355 121.872 90.1501 122.768 86.4381 122.768ZM86.4381 114C88.1875 114 89.7021 113.509 90.9821 112.528C92.3048 111.547 93.3288 109.989 94.0541 107.856C94.8221 105.723 95.2061 102.971 95.2061 99.6C95.2061 96.2293 94.8221 93.4773 94.0541 91.344C93.3288 89.2107 92.3048 87.6533 90.9821 86.672C89.7021 85.6907 88.1875 85.2 86.4381 85.2C84.7315 85.2 83.2168 85.6907 81.8941 86.672C80.6141 87.6533 79.5901 89.2107 78.8221 91.344C78.0968 93.4773 77.7341 96.2293 77.7341 99.6C77.7341 102.971 78.0968 105.723 78.8221 107.856C79.5901 109.989 80.6141 111.547 81.8941 112.528C83.2168 113.509 84.7315 114 86.4381 114ZM117.338 122V81.04L121.818 85.52H108.378V77.2H127.706V122H117.338Z" fill="#343045"/>
<defs>
<linearGradient id="paint0_linear_6502_147" x1="167.384" y1="61.5" x2="20.6563" y2="111.559" gradientUnits="userSpaceOnUse">
<stop stop-color="#C0B7E8"/>
<stop offset="1" stop-color="#8176AF"/>
</linearGradient>
</defs>
</svg>
