<svg width="200" height="198" viewBox="0 0 200 198" fill="none" xmlns="http://www.w3.org/2000/svg">
<ellipse cx="99.9308" cy="99" rx="99.6226" ry="99" fill="#0D0D0D" fill-opacity="0.32"/>
<ellipse cx="100.434" cy="98.5" rx="80" ry="79.5" fill="url(#paint0_linear_6502_148)"/>
<path d="M79.3627 122.768C75.6933 122.768 72.408 121.872 69.5067 120.08C66.6053 118.245 64.3227 115.6 62.6587 112.144C60.9947 108.688 60.1627 104.507 60.1627 99.6C60.1627 94.6933 60.9947 90.512 62.6587 87.056C64.3227 83.6 66.6053 80.976 69.5067 79.184C72.408 77.3493 75.6933 76.432 79.3627 76.432C83.0747 76.432 86.36 77.3493 89.2187 79.184C92.12 80.976 94.4027 83.6 96.0667 87.056C97.7307 90.512 98.5627 94.6933 98.5627 99.6C98.5627 104.507 97.7307 108.688 96.0667 112.144C94.4027 115.6 92.12 118.245 89.2187 120.08C86.36 121.872 83.0747 122.768 79.3627 122.768ZM79.3627 114C81.112 114 82.6267 113.509 83.9067 112.528C85.2293 111.547 86.2533 109.989 86.9787 107.856C87.7467 105.723 88.1307 102.971 88.1307 99.6C88.1307 96.2293 87.7467 93.4773 86.9787 91.344C86.2533 89.2107 85.2293 87.6533 83.9067 86.672C82.6267 85.6907 81.112 85.2 79.3627 85.2C77.656 85.2 76.1413 85.6907 74.8187 86.672C73.5387 87.6533 72.5147 89.2107 71.7467 91.344C71.0213 93.4773 70.6587 96.2293 70.6587 99.6C70.6587 102.971 71.0213 105.723 71.7467 107.856C72.5147 109.989 73.5387 111.547 74.8187 112.528C76.1413 113.509 77.656 114 79.3627 114ZM102.966 122V115.28L120.246 98.96C121.611 97.7227 122.614 96.6133 123.254 95.632C123.894 94.6507 124.321 93.7547 124.534 92.944C124.79 92.1333 124.918 91.3867 124.918 90.704C124.918 88.912 124.299 87.5467 123.062 86.608C121.867 85.6267 120.097 85.136 117.75 85.136C115.873 85.136 114.123 85.4987 112.502 86.224C110.923 86.9493 109.579 88.08 108.47 89.616L100.918 84.752C102.625 82.192 105.014 80.1653 108.086 78.672C111.158 77.1787 114.699 76.432 118.71 76.432C122.038 76.432 124.939 76.9867 127.414 78.096C129.931 79.1627 131.873 80.6773 133.238 82.64C134.646 84.6027 135.35 86.9493 135.35 89.68C135.35 91.1307 135.158 92.5813 134.774 94.032C134.433 95.44 133.707 96.9333 132.598 98.512C131.531 100.091 129.953 101.861 127.862 103.824L113.526 117.328L111.542 113.552H136.822V122H102.966Z" fill="#343045"/>
<defs>
<linearGradient id="paint0_linear_6502_148" x1="167.352" y1="61.5" x2="20.6248" y2="111.559" gradientUnits="userSpaceOnUse">
<stop stop-color="#C0B7E8"/>
<stop offset="1" stop-color="#8176AF"/>
</linearGradient>
</defs>
</svg>
