<svg width="200" height="198" viewBox="0 0 200 198" fill="none" xmlns="http://www.w3.org/2000/svg">
<ellipse cx="99.9874" cy="99" rx="99.6226" ry="99" fill="#0D0D0D" fill-opacity="0.32"/>
<ellipse cx="100.491" cy="98.5" rx="80" ry="79.5" fill="url(#paint0_linear_6502_149)"/>
<path d="M79.4192 122.768C75.7499 122.768 72.4646 121.872 69.5632 120.08C66.6619 118.245 64.3792 115.6 62.7152 112.144C61.0512 108.688 60.2192 104.507 60.2192 99.6C60.2192 94.6933 61.0512 90.512 62.7152 87.056C64.3792 83.6 66.6619 80.976 69.5632 79.184C72.4646 77.3493 75.7499 76.432 79.4192 76.432C83.1312 76.432 86.4166 77.3493 89.2752 79.184C92.1766 80.976 94.4592 83.6 96.1232 87.056C97.7872 90.512 98.6192 94.6933 98.6192 99.6C98.6192 104.507 97.7872 108.688 96.1232 112.144C94.4592 115.6 92.1766 118.245 89.2752 120.08C86.4166 121.872 83.1312 122.768 79.4192 122.768ZM79.4192 114C81.1686 114 82.6832 113.509 83.9632 112.528C85.2859 111.547 86.3099 109.989 87.0352 107.856C87.8032 105.723 88.1872 102.971 88.1872 99.6C88.1872 96.2293 87.8032 93.4773 87.0352 91.344C86.3099 89.2107 85.2859 87.6533 83.9632 86.672C82.6832 85.6907 81.1686 85.2 79.4192 85.2C77.7126 85.2 76.1979 85.6907 74.8752 86.672C73.5952 87.6533 72.5712 89.2107 71.8032 91.344C71.0779 93.4773 70.7152 96.2293 70.7152 99.6C70.7152 102.971 71.0779 105.723 71.8032 107.856C72.5712 109.989 73.5952 111.547 74.8752 112.528C76.1979 113.509 77.7126 114 79.4192 114ZM117.56 122.768C114.445 122.768 111.352 122.363 108.28 121.552C105.208 120.699 102.605 119.504 100.472 117.968L104.504 110.032C106.21 111.269 108.194 112.251 110.456 112.976C112.717 113.701 115 114.064 117.304 114.064C119.906 114.064 121.954 113.552 123.448 112.528C124.941 111.504 125.688 110.096 125.688 108.304C125.688 106.597 125.026 105.253 123.704 104.272C122.381 103.291 120.248 102.8 117.304 102.8H112.568V95.952L125.048 81.808L126.2 85.52H102.712V77.2H134.072V83.92L121.656 98.064L116.408 95.056H119.416C124.92 95.056 129.08 96.2933 131.896 98.768C134.712 101.243 136.12 104.421 136.12 108.304C136.12 110.821 135.458 113.189 134.136 115.408C132.813 117.584 130.786 119.355 128.056 120.72C125.325 122.085 121.826 122.768 117.56 122.768Z" fill="#343045"/>
<defs>
<linearGradient id="paint0_linear_6502_149" x1="167.409" y1="61.5" x2="20.6814" y2="111.559" gradientUnits="userSpaceOnUse">
<stop stop-color="#C0B7E8"/>
<stop offset="1" stop-color="#8176AF"/>
</linearGradient>
</defs>
</svg>
