<svg width="200" height="198" viewBox="0 0 200 198" fill="none" xmlns="http://www.w3.org/2000/svg">
<ellipse cx="100.006" cy="99" rx="99.6226" ry="99" fill="#0D0D0D" fill-opacity="0.32"/>
<ellipse cx="100.509" cy="98.5" rx="80" ry="79.5" fill="url(#paint0_linear_6502_150)"/>
<path d="M78.4318 122.768C74.7625 122.768 71.4772 121.872 68.5758 120.08C65.6745 118.245 63.3918 115.6 61.7278 112.144C60.0638 108.688 59.2318 104.507 59.2318 99.6C59.2318 94.6933 60.0638 90.512 61.7278 87.056C63.3918 83.6 65.6745 80.976 68.5758 79.184C71.4772 77.3493 74.7625 76.432 78.4318 76.432C82.1438 76.432 85.4292 77.3493 88.2878 79.184C91.1892 80.976 93.4718 83.6 95.1358 87.056C96.7998 90.512 97.6318 94.6933 97.6318 99.6C97.6318 104.507 96.7998 108.688 95.1358 112.144C93.4718 115.6 91.1892 118.245 88.2878 120.08C85.4292 121.872 82.1438 122.768 78.4318 122.768ZM78.4318 114C80.1812 114 81.6958 113.509 82.9758 112.528C84.2985 111.547 85.3225 109.989 86.0478 107.856C86.8158 105.723 87.1998 102.971 87.1998 99.6C87.1998 96.2293 86.8158 93.4773 86.0478 91.344C85.3225 89.2107 84.2985 87.6533 82.9758 86.672C81.6958 85.6907 80.1812 85.2 78.4318 85.2C76.7252 85.2 75.2105 85.6907 73.8878 86.672C72.6078 87.6533 71.5838 89.2107 70.8158 91.344C70.0905 93.4773 69.7278 96.2293 69.7278 99.6C69.7278 102.971 70.0905 105.723 70.8158 107.856C71.5838 109.989 72.6078 111.547 73.8878 112.528C75.2105 113.509 76.7252 114 78.4318 114ZM102.157 112.592V105.616L123.277 77.2H134.157L113.485 105.616L108.429 104.144H143.693V112.592H102.157ZM126.285 122V112.592L126.605 104.144V95.76H136.397V122H126.285Z" fill="#343045"/>
<defs>
<linearGradient id="paint0_linear_6502_150" x1="167.428" y1="61.5" x2="20.7003" y2="111.559" gradientUnits="userSpaceOnUse">
<stop stop-color="#C0B7E8"/>
<stop offset="1" stop-color="#8176AF"/>
</linearGradient>
</defs>
</svg>
